<?xml version="1.0" encoding="utf-8"?>
<!-- Generator: Adobe Illustrator 15.0.2, SVG Export Plug-In . SVG Version: 6.00 Build 0)  -->
<!DOCTYPE svg PUBLIC "-//W3C//DTD SVG 1.1//EN" "http://www.w3.org/Graphics/SVG/1.1/DTD/svg11.dtd">
<svg version="1.1" id="Layer_1" xmlns="http://www.w3.org/2000/svg" xmlns:xlink="http://www.w3.org/1999/xlink" x="0px" y="0px"
	 width="1054.773px" height="435.394px" viewBox="4.813 3.481 1054.773 435.394"
	 enable-background="new 4.813 3.481 1054.773 435.394" xml:space="preserve">
<path fill="#0E78BE" d="M250.521,431.773h-28.9c-3.887-0.166-7.259-1.648-10.13-4.437c-2.875-2.788-4.311-6.114-4.311-10.017
	v-11.157c-22.633,21.81-48.059,32.712-76.284,32.712c-33.783,0-61.75-12.334-83.88-37.006
	c-22.135-25.521-33.203-57.024-33.203-94.529c0-36.493,11.064-67.241,33.203-92.244c21.801-24.844,49.329-37.261,82.618-37.261
	c28.893,0,54.737,11.835,77.547,35.485V33.383V32.36c0-4.043,0.758-7.799,2.275-11.268c1.529-3.455,3.588-6.502,6.22-9.126
	c2.611-2.614,5.651-4.691,9.118-6.212c3.459-1.526,7.225-2.273,11.275-2.273c3.891,0,7.612,0.751,11.158,2.273
	c3.537,1.521,6.62,3.598,9.235,6.212c2.616,2.624,4.702,5.671,6.225,9.126c1.518,3.465,2.263,7.224,2.263,11.268v386.243
	c-0.33,3.701-1.891,6.824-4.683,9.365C257.487,430.501,254.231,431.773,250.521,431.773z M72.107,307.59
	c0,23.656,6.334,42.917,19.001,57.784c13.005,15.037,29.395,22.552,49.169,22.552c21.115,0,38.171-7.26,51.188-21.791
	c13.005-15.036,19.52-34.119,19.52-57.282c0-23.139-6.515-42.238-19.52-57.275c-13.017-14.683-29.9-22.045-50.686-22.045
	c-19.598,0-35.987,7.44-49.157,22.312C78.606,266.873,72.107,285.459,72.107,307.59z"/>
<path fill="#0E78BE" d="M506.454,403.645c0,4.056-0.757,7.812-2.271,11.267c-1.533,3.471-3.558,6.507-6.099,9.126
	c-2.525,2.633-5.569,4.684-9.114,6.205c-3.558,1.53-7.35,2.29-11.405,2.29c-7.941,0-14.617-2.71-20.032-8.118l-1.519-1.514
	c-0.329-0.519-0.76-1.052-1.262-1.646c-0.511-0.605-0.931-1.134-1.268-1.647l-71.716-91.749l-9.129,9.123v65.887
	c0,0.173-0.087,0.349-0.251,0.514v0.256c0,3.891-0.722,7.554-2.161,11.021c-1.424,3.458-3.42,6.463-5.941,8.996
	c-2.546,2.529-5.546,4.558-9.001,6.078c-3.476,1.522-7.225,2.287-11.287,2.287c-3.879,0-7.519-0.725-10.892-2.157
	c-3.373-1.432-6.337-3.384-8.871-5.832c-2.533-2.446-4.554-5.325-6.078-8.619c-1.519-3.291-2.361-6.879-2.534-10.778v-1.514V32.63
	l-0.251-0.507c0-4.059,0.753-7.814,2.267-11.285c1.525-3.457,3.55-6.465,6.091-8.999c2.53-2.534,5.521-4.563,9.001-6.084
	c3.459-1.526,7.224-2.273,11.268-2.273c3.891,0,7.561,0.751,11.032,2.273c3.459,1.521,6.467,3.551,9,6.084
	c2.534,2.534,4.554,5.542,6.083,8.999c1.525,3.467,2.278,7.226,2.278,11.285h0.251v232.633l72.731-72.221v0.249
	c4.898-5.233,11.158-7.848,18.755-7.848c7.604,0,13.949,2.525,19.017,7.603c5.067,5.075,7.601,11.404,7.601,19.012
	c0,3.384-0.624,6.629-1.906,9.749c-1.271,3.131-3.004,5.873-5.2,8.241l-0.494,0.502c0,0.177-0.095,0.256-0.259,0.256l-60.57,58.553
	l76.289,95.02C503.823,389.447,506.454,396.028,506.454,403.645z"/>
<path fill="#0E78BE" d="M736.77,431.773c-3.89,0-7.185-1.225-9.883-3.68c-2.714-2.447-4.235-5.616-4.564-9.49v-12.676
	c-23.484,21.946-48.584,32.943-75.27,32.943c-34.127,0-62.263-12.338-84.397-37.007c-22.292-25.005-33.454-56.345-33.454-94.015
	c0-37.007,11.162-67.833,33.454-92.502c21.806-24.677,49.423-37.002,82.877-37.002c28.379,0,53.98,11.823,76.79,35.485
	c0-3.895,0.761-7.574,2.29-11.033c1.514-3.46,3.545-6.5,6.071-9.124c2.541-2.614,5.529-4.69,8.996-6.216
	c3.455-1.51,7.135-2.269,11.029-2.269c4.055,0,7.859,0.759,11.396,2.269c3.545,1.525,6.64,3.599,9.255,6.216
	c2.621,2.624,4.684,5.664,6.205,9.124c1.521,3.459,2.283,7.139,2.283,11.033c0,0.337-0.04,0.586-0.127,0.751
	c-0.081,0.173-0.133,0.349-0.133,0.514h0.26l-0.26,202.487c0,3.879-1.388,7.225-4.165,10.001c-2.788,2.8-6.221,4.189-10.275,4.189
	H736.77L736.77,431.773z M706.874,366.135c13.001-15.373,19.511-34.387,19.511-57.023c0-22.975-6.51-41.979-19.511-57.024
	c-13.021-14.695-30.007-22.048-50.949-22.048c-19.264,0-35.485,7.353-48.655,22.048c-13.181,15.209-19.773,33.792-19.773,55.766
	c0,23.315,6.428,42.415,19.264,57.259c13.178,15.209,29.489,22.822,48.909,22.822C676.614,387.926,693.681,380.667,706.874,366.135z
	"/>
<path fill="#0E78BE" d="M1041.583,402.873c0,0.349-0.06,0.732-0.127,1.148c-0.094,0.424-0.133,0.808-0.133,1.137
	c-0.173,3.891-1.059,7.479-2.659,10.774c-1.604,3.282-3.718,6.161-6.337,8.616c-2.624,2.446-5.621,4.393-8.993,5.835
	c-3.393,1.42-7.021,2.149-10.907,2.149c-4.055,0-7.809-0.76-11.271-2.29c-3.467-1.521-6.503-3.572-9.119-6.205
	c-2.619-2.619-4.69-5.655-6.224-9.126c-1.521-3.45-2.263-7.211-2.263-11.267c0-1.522,0.078-2.69,0.246-3.562V294.66
	c0-24.491-3.381-41.396-10.13-50.683c-6.93-9.631-18.997-14.444-36.253-14.444c-19.249,0-32.771,6.339-40.537,19.01
	c-7.942,12.33-11.923,33.963-11.923,64.883v83.113c0.346,1.188,0.519,2.25,0.519,3.164c0,0.93,0,2.074,0,3.424
	c0,4.063-0.758,7.899-2.283,11.531c-1.521,3.627-3.545,6.796-6.078,9.502c-2.541,2.71-5.581,4.862-9.131,6.46
	c-3.545,1.6-7.341,2.411-11.413,2.411c-4.038,0-7.883-0.756-11.521-2.278c-3.631-1.514-6.797-3.632-9.491-6.338
	c-2.706-2.69-4.819-5.812-6.342-9.365c-1.513-3.553-2.282-7.349-2.282-11.412c0-1.86,0.083-3.201,0.255-4.063V214.076
	c0-4.052,0.761-7.855,2.274-11.413c1.529-3.543,3.64-6.667,6.338-9.365c2.698-2.707,5.828-4.819,9.373-6.338
	c3.554-1.521,7.358-2.284,11.396-2.284c3.389,0,6.645,0.598,9.767,1.771c3.129,1.188,5.944,2.787,8.487,4.819
	c2.548,2.032,4.698,4.47,6.463,7.341c1.784,2.876,3.004,5.932,3.67,9.128c20.104-19.938,42.843-29.906,68.186-29.906
	c28.889,0,51.354,9.128,67.409,27.38c14.017,15.201,21.037,40.374,21.037,75.51v122.155H1041.583z"/>
</svg>
