<?xml version="1.0" encoding="utf-8"?>
<!-- Generator: Adobe Illustrator 18.1.1, SVG Export Plug-In . SVG Version: 6.00 Build 0)  -->
<svg version="1.1" id="Layer_1" xmlns="http://www.w3.org/2000/svg" xmlns:xlink="http://www.w3.org/1999/xlink" x="0px" y="0px"
	 viewBox="-349 351 300 300" enable-background="new -349 351 300 300" xml:space="preserve">
<rect x="-349" y="351" fill="#0A77BE" width="300" height="300"/>
<g>
	<path fill="#FDFEFF" d="M-274.3,551.9h-7.8c-1,0-2-0.4-2.7-1.2c-0.8-0.8-1.2-1.6-1.2-2.7v-3c-6.1,5.9-12.9,8.8-20.5,8.8
		c-9.1,0-16.6-3.3-22.6-10c-6-6.9-8.9-15.3-8.9-25.4c0-9.8,3-18.1,8.9-24.8c5.9-6.7,13.3-10,22.2-10c7.8,0,14.7,3.2,20.9,9.5v-48.4
		v-0.3c0-1.1,0.2-2.1,0.6-3c0.4-0.9,1-1.7,1.7-2.5c0.7-0.7,1.5-1.3,2.5-1.7c0.9-0.4,1.9-0.6,3-0.6c1,0,2,0.2,3,0.6
		c1,0.4,1.8,1,2.5,1.7c0.7,0.7,1.3,1.5,1.7,2.5c0.4,0.9,0.6,1.9,0.6,3v103.9c-0.1,1-0.5,1.8-1.3,2.5
		C-272.5,551.6-273.3,551.9-274.3,551.9z M-322.4,518.5c0,6.4,1.7,11.5,5.1,15.5c3.5,4,7.9,6.1,13.2,6.1c5.7,0,10.3-2,13.8-5.9
		c3.5-4,5.3-9.2,5.3-15.4c0-6.2-1.8-11.4-5.3-15.4c-3.5-4-8-5.9-13.6-5.9c-5.3,0-9.7,2-13.2,6C-320.6,507.6-322.4,512.6-322.4,518.5
		z"/>
	<path fill="#FDFEFF" d="M-205.5,544.4c0,1.1-0.2,2.1-0.6,3c-0.4,0.9-1,1.8-1.6,2.5c-0.7,0.7-1.5,1.3-2.5,1.7c-1,0.4-2,0.6-3.1,0.6
		c-2.1,0-3.9-0.7-5.4-2.2l-0.4-0.4c-0.1-0.1-0.2-0.3-0.3-0.4c-0.1-0.2-0.2-0.3-0.3-0.4L-239,524l-2.5,2.5v17.7c0,0,0,0.1-0.1,0.1
		v0.1c0,1-0.2,2-0.6,3c-0.4,0.9-0.9,1.7-1.6,2.4c-0.7,0.7-1.5,1.2-2.4,1.6c-0.9,0.4-1.9,0.6-3,0.6c-1,0-2-0.2-2.9-0.6
		c-0.9-0.4-1.7-0.9-2.4-1.6c-0.7-0.7-1.2-1.4-1.6-2.3c-0.4-0.9-0.6-1.9-0.7-2.9v-0.4v-99.7l-0.1-0.1c0-1.1,0.2-2.1,0.6-3
		c0.4-0.9,1-1.7,1.6-2.4c0.7-0.7,1.5-1.2,2.4-1.6c0.9-0.4,1.9-0.6,3-0.6c1,0,2,0.2,3,0.6c0.9,0.4,1.7,1,2.4,1.6
		c0.7,0.7,1.2,1.5,1.6,2.4c0.4,0.9,0.6,1.9,0.6,3h0.1V507l19.6-19.4v0.1c1.3-1.4,3-2.1,5-2.1c2,0,3.8,0.7,5.1,2c1.4,1.4,2,3.1,2,5.1
		c0,0.9-0.2,1.8-0.5,2.6c-0.3,0.8-0.8,1.6-1.4,2.2l-0.1,0.1c0,0,0,0.1-0.1,0.1l-16.3,15.8l20.5,25.6
		C-206.2,540.6-205.5,542.3-205.5,544.4z"/>
	<path fill="#FDFEFF" d="M-143.5,551.9c-1,0-1.9-0.3-2.7-1c-0.7-0.7-1.1-1.5-1.2-2.6V545c-6.3,5.9-13.1,8.9-20.3,8.9
		c-9.2,0-16.8-3.3-22.7-10c-6-6.7-9-15.2-9-25.3c0-10,3-18.3,9-24.9c5.9-6.6,13.3-10,22.3-10c7.6,0,14.5,3.2,20.7,9.5
		c0-1,0.2-2,0.6-3c0.4-0.9,1-1.7,1.6-2.5c0.7-0.7,1.5-1.3,2.4-1.7c0.9-0.4,1.9-0.6,3-0.6c1.1,0,2.1,0.2,3.1,0.6c1,0.4,1.8,1,2.5,1.7
		c0.7,0.7,1.3,1.5,1.7,2.5c0.4,0.9,0.6,1.9,0.6,3c0,0.1,0,0.2,0,0.2c0,0,0,0.1,0,0.1h0.1l-0.1,54.5c0,1-0.4,1.9-1.1,2.7
		c-0.8,0.8-1.7,1.1-2.8,1.1L-143.5,551.9L-143.5,551.9z M-151.5,534.3c3.5-4.1,5.3-9.3,5.3-15.3c0-6.2-1.8-11.3-5.3-15.3
		c-3.5-4-8.1-5.9-13.7-5.9c-5.2,0-9.6,2-13.1,5.9c-3.5,4.1-5.3,9.1-5.3,15c0,6.3,1.7,11.4,5.2,15.4c3.5,4.1,7.9,6.1,13.2,6.1
		C-159.7,540.1-155.1,538.2-151.5,534.3z"/>
	<path fill="#FDFEFF" d="M-61.5,544.2c0,0.1,0,0.2,0,0.3c0,0.1,0,0.2,0,0.3c0,1-0.3,2-0.7,2.9c-0.4,0.9-1,1.7-1.7,2.3
		c-0.7,0.7-1.5,1.2-2.4,1.6c-0.9,0.4-1.9,0.6-2.9,0.6c-1.1,0-2.1-0.2-3-0.6c-0.9-0.4-1.8-1-2.5-1.7c-0.7-0.7-1.3-1.5-1.7-2.5
		c-0.4-0.9-0.6-1.9-0.6-3c0-0.4,0-0.7,0.1-1V515c0-6.6-0.9-11.1-2.7-13.6c-1.9-2.6-5.1-3.9-9.8-3.9c-5.2,0-8.8,1.7-10.9,5.1
		c-2.1,3.3-3.2,9.1-3.2,17.5v22.4c0.1,0.3,0.1,0.6,0.1,0.9c0,0.2,0,0.6,0,0.9c0,1.1-0.2,2.1-0.6,3.1c-0.4,1-1,1.8-1.6,2.6
		c-0.7,0.7-1.5,1.3-2.5,1.7c-1,0.4-2,0.6-3.1,0.6c-1.1,0-2.1-0.2-3.1-0.6c-1-0.4-1.8-1-2.6-1.7c-0.7-0.7-1.3-1.6-1.7-2.5
		c-0.4-1-0.6-2-0.6-3.1c0-0.5,0-0.9,0.1-1.1v-49.9c0-1.1,0.2-2.1,0.6-3.1c0.4-1,1-1.8,1.7-2.5s1.6-1.3,2.5-1.7c1-0.4,2-0.6,3.1-0.6
		c0.9,0,1.8,0.2,2.6,0.5c0.8,0.3,1.6,0.8,2.3,1.3c0.7,0.5,1.3,1.2,1.7,2c0.5,0.8,0.8,1.6,1,2.5c5.4-5.4,11.5-8,18.3-8
		c7.8,0,13.8,2.5,18.1,7.4c3.8,4.1,5.7,10.9,5.7,20.3L-61.5,544.2L-61.5,544.2z"/>
</g>
</svg>
